<svg height="30.633" viewBox="0 0 30.633 30.633" width="30.633" xmlns="http://www.w3.org/2000/svg"><g fill="#2ebee2"><path d="m27.123 70.748h-23.613a3.513 3.513 0 0 1 -3.51-3.51v-21.06a3.513 3.513 0 0 1 3.51-3.51h23.613a3.513 3.513 0 0 1 3.51 3.51v21.06a3.513 3.513 0 0 1 -3.51 3.51zm-23.613-26.165a1.6 1.6 0 0 0 -1.6 1.6v21.06a1.6 1.6 0 0 0 1.6 1.6h23.613a1.6 1.6 0 0 0 1.6-1.6v-21.065a1.6 1.6 0 0 0 -1.6-1.6zm0 0" transform="translate(0 -40.115)"/><path d="m29.676 170.668h-28.719c-.528 0-.957 3.783-.957 8.444s.429 8.444.957 8.444h28.719c.528 0 .957-3.783.957-8.444s-.433-8.444-.957-8.444zm0 0" transform="translate(0 -158.542)"/><path d="m107.625 7.658a.958.958 0 0 1 -.957-.957v-5.744a.957.957 0 0 1 1.915 0v5.743a.958.958 0 0 1 -.958.958zm0 0" transform="translate(-100.286)"/><path d="m374.289 7.658a.958.958 0 0 1 -.957-.957v-5.744a.957.957 0 0 1 1.915 0v5.743a.958.958 0 0 1 -.958.958zm0 0" transform="translate(-350.996)"/></g></svg>