<svg height="32" viewBox="0 0 14.674 32" width="14.674" xmlns="http://www.w3.org/2000/svg"><g fill="#2ebee2" transform="translate(-67.73)"><path d="m79.512 18.834v-14.39a4.445 4.445 0 0 0 -8.889 0v14.39a7.337 7.337 0 1 0 8.889 0zm-4.445 11.247a5.413 5.413 0 0 1 -2.959-9.949.959.959 0 0 0 .434-.8v-14.888a2.526 2.526 0 0 1 5.052 0v14.886a.959.959 0 0 0 .434.8 5.413 5.413 0 0 1 -2.96 9.949z"/><path d="m104.319 76.082v-12.7a.961.961 0 0 0 -1.922 0v12.7a3.194 3.194 0 1 0 1.922 0z" transform="translate(-28.291 -54.477)"/></g></svg>