<svg height="31.077" viewBox="0 0 106.837 31.077" width="106.837" xmlns="http://www.w3.org/2000/svg"><g fill="#505050"><path d="m4.452 73.3a.274.274 0 0 1 -.307.245.3.3 0 0 1 -.245-.307.274.274 0 0 1 .307-.245.279.279 0 0 1 .245.307z" transform="translate(-3.624 -68.442)"/><path d="m112.5 83.067 5.642-14.167h1.993l5.55 14.167h-2.177l-1.533-3.925h-6.01l-1.565 3.925zm4.017-5.428h4.814l-2.392-6.1z" transform="translate(-78.922 -60.942)"/><path d="m173.8 81.867a12.753 12.753 0 0 1 -4.508.736 7.565 7.565 0 0 1 -4.017-.92 5.61 5.61 0 0 1 -2.208-2.668 9.35 9.35 0 0 1 -.767-3.864 8.278 8.278 0 0 1 1.717-5.366 6.486 6.486 0 0 1 5.244-2.085 16.972 16.972 0 0 1 4.477.644v1.871a22.178 22.178 0 0 0 -2.974-.859 9.09 9.09 0 0 0 -1.533-.123 4.014 4.014 0 0 0 -3.68 1.748 7.488 7.488 0 0 0 -1.135 4.2 7.967 7.967 0 0 0 .491 2.852 4.849 4.849 0 0 0 1.625 2.208 4.919 4.919 0 0 0 3.067.859 8.158 8.158 0 0 0 .92-.061 6.49 6.49 0 0 0 1.257-.307v-4.6h2.024v5.734z" transform="translate(-113.451 -60.11)"/><path d="m214.2 83.067v-14.167h7.942v1.5h-5.918v4.538h4.968v1.472h-4.968v5.121h6.348v1.5h-8.372z" transform="translate(-149.436 -60.942)"/><path d="m251.429 83.067v-12.667h-5.029v-1.5h12.082v1.5h-5.029v12.667z" transform="translate(-171.762 -60.942)"/><path d="m295.2 83.067v-14.167h2.024v14.167z" transform="translate(-205.597 -60.942)"/><path d="m325.369 81.6a10.442 10.442 0 0 1 -1.564.675 7.222 7.222 0 0 1 -1.411.307 12.77 12.77 0 0 1 -1.595.092q-3.588 0-5.244-2.116a8.365 8.365 0 0 1 -1.656-5.305 8.278 8.278 0 0 1 1.717-5.366 6.469 6.469 0 0 1 5.274-2.085 19.907 19.907 0 0 1 4.446.613v1.9a19.1 19.1 0 0 0 -2.944-.859 9.091 9.091 0 0 0 -1.533-.123 4.1 4.1 0 0 0 -3.68 1.717 7.7 7.7 0 0 0 -1.135 4.232 6.411 6.411 0 0 0 1.319 4.232 4.572 4.572 0 0 0 3.741 1.625 6.694 6.694 0 0 0 1.349-.123 7.063 7.063 0 0 0 1.319-.368 10.36 10.36 0 0 0 1.625-.767v1.719z" transform="translate(-218.563 -60.179)"/><path d="m32.014 113.383a.556.556 0 0 1 -.368-.675.531.531 0 0 1 .675-.368.556.556 0 0 1 .368.675.531.531 0 0 1 -.675.368z" transform="translate(-22.845 -95.711)"/><path d="m27.514 112.183a.556.556 0 0 1 -.368-.675.531.531 0 0 1 .675-.368.556.556 0 0 1 .368.675.584.584 0 0 1 -.675.368z" transform="translate(-19.725 -94.879)"/><path d="m36.814 113.483a.556.556 0 0 1 -.368-.675.531.531 0 0 1 .675-.368.543.543 0 0 1 -.307 1.043z" transform="translate(-26.173 -95.78)"/><path d="m41.346 112.523a.418.418 0 0 1 -.307-.552.439.439 0 0 1 .552-.307.457.457 0 0 1 .337.552.471.471 0 0 1 -.582.307z" transform="translate(-29.356 -95.25)"/><path d="m24.246 110.023a.418.418 0 0 1 -.307-.552.439.439 0 0 1 .552-.307.418.418 0 0 1 .307.552.439.439 0 0 1 -.552.307z" transform="translate(-17.499 -93.517)"/><path d="m21.865 107.839a.4.4 0 0 1 -.276-.429.381.381 0 0 1 .736.184.378.378 0 0 1 -.46.245z" transform="translate(-15.886 -92.13)"/><path d="m44.563 110.939a.351.351 0 1 1 .46-.245.357.357 0 0 1 -.46.245z" transform="translate(-31.622 -94.279)"/><path d="m20.541 105.369a.275.275 0 0 1 -.184-.368.315.315 0 0 1 .368-.215.275.275 0 0 1 .184.368.282.282 0 0 1 -.368.215z" transform="translate(-15.021 -90.488)"/><circle cx="13.861" cy="15.617" r=".276"/><path d="m19.771 103.216a.272.272 0 0 1 -.184-.307.229.229 0 0 1 .307-.153.272.272 0 0 1 .184.307.287.287 0 0 1 -.307.153z" transform="translate(-14.496 -89.071)"/><path d="m19.336 101.15a.2.2 0 0 1 -.153-.245.209.209 0 0 1 .245-.123.2.2 0 0 1 .153.245.209.209 0 0 1 -.245.123z" transform="translate(-14.214 -87.71)"/><path d="m48.836 106.15a.2.2 0 0 1 -.153-.245.209.209 0 0 1 .245-.123.2.2 0 0 1 .153.245.209.209 0 0 1 -.245.123z" transform="translate(-34.668 -91.177)"/><path d="m5.472 105.367a.737.737 0 1 1 -.736-.767.8.8 0 0 1 .736.767z" opacity=".8" transform="translate(-3.693 -90.363)"/><path d="m4.472 98.167a.737.737 0 1 1 -.736-.767.753.753 0 0 1 .736.767z" opacity=".8" transform="translate(-3 -85.371)"/><path d="m8.572 111.567a.737.737 0 1 1 -.736-.767.772.772 0 0 1 .736.767z" opacity=".8" transform="translate(-5.843 -94.662)"/><path d="m12.488 116.744a.629.629 0 0 1 -.644.644.648.648 0 0 1 -.644-.644.629.629 0 0 1 .644-.644.648.648 0 0 1 .644.644z" opacity=".8" transform="translate(-8.685 -98.336)"/><path d="m6.488 91.844a.629.629 0 0 1 -.644.644.648.648 0 0 1 -.644-.644.629.629 0 0 1 .644-.644.669.669 0 0 1 .644.644z" opacity=".8" transform="translate(-4.526 -81.072)"/><path d="m16.465 120.783a.564.564 0 0 1 -.583.583.6.6 0 0 1 -.583-.583.564.564 0 0 1 .583-.583.582.582 0 0 1 .583.583z" opacity=".8" transform="translate(-11.528 -101.179)"/><path d="m8.465 86.583a.564.564 0 0 1 -.583.583.6.6 0 0 1 -.583-.583.564.564 0 0 1 .584-.583.6.6 0 0 1 .582.583z" opacity=".8" transform="translate(-5.981 -77.467)"/><path d="m22.043 123.115a.517.517 0 0 1 -.521.521.537.537 0 0 1 -.521-.521.517.517 0 0 1 .521-.521.5.5 0 0 1 .521.521z" opacity=".8" transform="translate(-15.48 -102.837)"/><path d="m11.443 83.021a.517.517 0 0 1 -.521.521.537.537 0 0 1 -.521-.521.521.521 0 0 1 1.043 0z" opacity=".8" transform="translate(-8.131 -75.04)"/><path d="m27.436 124.6a.369.369 0 1 1 -.368-.4.38.38 0 0 1 .368.4z" opacity=".8" transform="translate(-19.432 -103.953)"/><path d="m14.036 79.5a.369.369 0 1 1 -.368-.4.455.455 0 0 1 .368.4z" opacity=".8" transform="translate(-10.141 -72.682)"/><path d="m31.713 124.837a.336.336 0 0 1 -.307.337.315.315 0 0 1 -.307-.337.308.308 0 1 1 .613 0z" opacity=".8" transform="translate(-22.483 -104.161)"/><path d="m16.852 77.776a.276.276 0 1 1 -.276-.276.275.275 0 0 1 .276.276z" opacity=".8" transform="translate(-12.222 -71.573)"/><path d="m19.352 76.165a.276.276 0 1 1 -.276-.276c.153-.03.276.092.276.276z" opacity=".8" transform="translate(-13.955 -70.453)"/><path d="m19.626 112.548a.63.63 0 0 1 -.184.859.617.617 0 0 1 -.859-.215.63.63 0 0 1 .184-.859.677.677 0 0 1 .859.215z" opacity=".5" transform="translate(-13.738 -95.673)"/><path d="m15.657 107.9a.626.626 0 0 1 -1.073.644.63.63 0 0 1 .184-.859.64.64 0 0 1 .889.215z" opacity=".5" transform="translate(-10.965 -92.438)"/><path d="m24.526 115.6a.63.63 0 0 1 -.184.859.617.617 0 0 1 -.859-.215.63.63 0 0 1 .184-.859.617.617 0 0 1 .859.215z" opacity=".5" transform="translate(-17.136 -97.776)"/><path d="m29.234 117.614a.519.519 0 0 1 -.184.736.546.546 0 0 1 -.736-.184.519.519 0 0 1 .184-.736.531.531 0 0 1 .736.184z" opacity=".5" transform="translate(-20.495 -99.207)"/><path d="m14.1 103.845a.537.537 0 0 1 -.153.736.546.546 0 0 1 -.736-.184.519.519 0 0 1 .184-.736.538.538 0 0 1 .705.184z" opacity=".5" transform="translate(-10.025 -89.67)"/><path d="m33.856 118.812a.489.489 0 1 1 -.675-.153.514.514 0 0 1 .675.153z" opacity=".5" transform="translate(-23.767 -100.067)"/><path d="m13.156 99.412a.5.5 0 0 1 -.153.675.53.53 0 0 1 -.675-.153.5.5 0 0 1 .153-.675.522.522 0 0 1 .675.153z" opacity=".5" transform="translate(-9.415 -86.616)"/><path d="m39.495 118.39a.426.426 0 0 1 -.736.429.453.453 0 0 1 .153-.613.458.458 0 0 1 .583.184z" opacity=".5" transform="translate(-27.75 -99.768)"/><path d="m13.495 95.23a.453.453 0 0 1 -.153.613.426.426 0 1 1 -.429-.736.391.391 0 0 1 .582.123z" opacity=".5" transform="translate(-9.723 -83.722)"/><path d="m43.1 117.125a.3.3 0 0 1 -.092.429.31.31 0 0 1 -.429-.123.3.3 0 0 1 .092-.429.31.31 0 0 1 .429.123z" opacity=".5" transform="translate(-30.409 -98.932)"/><path d="m15 92.225a.3.3 0 0 1 -.092.429.31.31 0 0 1 -.429-.123.3.3 0 0 1 .092-.429.31.31 0 0 1 .429.123z" opacity=".5" transform="translate(-10.926 -81.668)"/><path d="m16.5 90.236a.23.23 0 0 1 -.061.307.219.219 0 0 1 -.307-.092.23.23 0 0 1 .061-.307.238.238 0 0 1 .307.092z" opacity=".5" transform="translate(-12.08 -80.323)"/><path d="m18.3 88.223a.23.23 0 0 1 -.061.307.219.219 0 0 1 -.307-.092.23.23 0 0 1 .061-.307.219.219 0 0 1 .307.092z" opacity=".5" transform="translate(-13.328 -78.923)"/><path d="m75.745 102.461a1.344 1.344 0 0 1 -1.472 1.2 1.323 1.323 0 0 1 -1.2-1.472 1.344 1.344 0 0 1 1.472-1.2 1.323 1.323 0 0 1 1.2 1.472z" transform="translate(-51.581 -87.856)"/><path d="m74.645 113.761a1.344 1.344 0 0 1 -1.472 1.2 1.323 1.323 0 0 1 -1.2-1.472 1.344 1.344 0 0 1 1.472-1.2 1.385 1.385 0 0 1 1.2 1.472z" transform="translate(-50.818 -95.691)"/><path d="m73.945 89.761a1.344 1.344 0 0 1 -1.472 1.2 1.323 1.323 0 0 1 -1.2-1.472 1.344 1.344 0 0 1 1.472-1.2 1.362 1.362 0 0 1 1.2 1.472z" transform="translate(-50.333 -79.05)"/><path d="m68.58 77.668a1.229 1.229 0 0 1 -1.318 1.132 1.248 1.248 0 0 1 -1.073-1.38 1.2 1.2 0 1 1 2.392.245z" transform="translate(-46.808 -70.729)"/><path d="m72.833 123.514a1.08 1.08 0 1 1 -.951-1.227 1.1 1.1 0 0 1 .951 1.227z" transform="translate(-49.927 -102.623)"/><path d="m71.1 131.2a.866.866 0 1 1 -.767-1.012.867.867 0 0 1 .767 1.012z" transform="translate(-49.022 -108.098)"/><path d="m53.8 63.2a.866.866 0 1 1 -.767-1.012.9.9 0 0 1 .767 1.012z" transform="translate(-37.027 -60.95)"/><path d="m68.405 137.347a.67.67 0 0 1 -.767.613.715.715 0 0 1 -.644-.767.671.671 0 0 1 .767-.613.733.733 0 0 1 .644.767z" transform="translate(-47.369 -112.531)"/><path d="m40.405 59.549a.67.67 0 0 1 -.767.613.715.715 0 0 1 -.644-.767.691.691 0 0 1 .767-.613.678.678 0 0 1 .644.767z" transform="translate(-27.955 -58.59)"/><path d="m66.259 142.869a.608.608 0 0 1 -.644.552.6.6 0 0 1 -.521-.675.608.608 0 0 1 .644-.552.618.618 0 0 1 .521.675z" transform="translate(-46.051 -116.427)"/><path d="m63.374 147.245a.512.512 0 0 1 -.552.46.489.489 0 0 1 -.429-.552.512.512 0 0 1 .552-.46.489.489 0 0 1 .429.552z" transform="translate(-44.178 -119.546)"/><path d="m16.674 63.145a.512.512 0 0 1 -.552.46.489.489 0 0 1 -.429-.552.512.512 0 0 1 .552-.46.489.489 0 0 1 .429.552z" transform="translate(-11.798 -61.236)"/><ellipse cx="19.534" cy="15.74" opacity=".5" rx=".736" ry=".767"/><path d="m65.065 114.483a.582.582 0 0 1 -.583.583.6.6 0 0 1 -.583-.583.564.564 0 0 1 .583-.583.582.582 0 0 1 .583.583z" opacity=".5" transform="translate(-45.225 -96.811)"/><path d="m27.84 59.411a.708.708 0 0 1 -.859.491.667.667 0 0 1 -.46-.859.708.708 0 0 1 .859-.491.667.667 0 0 1 .46.859z" transform="translate(-19.285 -58.421)"/><path d="m60.474 151.145a.512.512 0 0 1 -.552.46.489.489 0 0 1 -.429-.552.512.512 0 0 1 .552-.46.476.476 0 0 1 .429.552z" transform="translate(-42.167 -122.25)"/><path d="m57.136 155.02a.37.37 0 0 1 -.4.337.4.4 0 0 1 -.337-.429.37.37 0 0 1 .4-.337.382.382 0 0 1 .337.429z" transform="translate(-40.025 -125.022)"/><path d="m53.952 158a.26.26 0 0 1 -.307.245.3.3 0 0 1 -.245-.307.274.274 0 0 1 .307-.245.26.26 0 0 1 .245.307z" transform="translate(-37.945 -127.169)"/><path d="m60.18 68.468a1.229 1.229 0 0 1 -1.318 1.132 1.248 1.248 0 0 1 -1.073-1.38 1.229 1.229 0 0 1 1.319-1.135 1.248 1.248 0 0 1 1.072 1.383z" transform="translate(-40.984 -64.351)"/><path d="m46.8 60.466a.864.864 0 1 1 -.767-.981.854.854 0 0 1 .767.981z" transform="translate(-32.174 -59.078)"/><path d="m34.205 58.947a.67.67 0 0 1 -.767.613.7.7 0 0 1 -.644-.767.67.67 0 0 1 .767-.613.678.678 0 0 1 .644.767z" transform="translate(-23.657 -58.172)"/><path d="m21.44 60.811a.708.708 0 0 1 -.859.491.667.667 0 0 1 -.46-.859.708.708 0 0 1 .859-.491.68.68 0 0 1 .46.859z" transform="translate(-14.847 -59.391)"/><path d="m64.44 93.181a.922.922 0 1 1 -.92-.981.938.938 0 0 1 .92.981z" opacity=".5" transform="translate(-44.324 -81.765)"/><path d="m65.417 100.72a.861.861 0 1 1 -.859-.92.892.892 0 0 1 .859.92z" opacity=".5" transform="translate(-45.086 -87.035)"/><path d="m50.372 72.367a.737.737 0 1 1 -.736-.767.753.753 0 0 1 .736.767z" opacity=".5" transform="translate(-34.825 -67.482)"/><path d="m64.165 119.677a.564.564 0 0 1 -.583.583.6.6 0 0 1 -.583-.583.564.564 0 0 1 .583-.583.547.547 0 0 1 .583.583z" opacity=".5" transform="translate(-44.601 -100.411)"/><path d="m62.943 124.321a.517.517 0 0 1 -.521.521.537.537 0 0 1 -.521-.521.517.517 0 0 1 .521-.521.537.537 0 0 1 .521.521z" opacity=".5" transform="translate(-43.838 -103.675)"/><path d="m61.3 129.2a.4.4 0 1 1 -.4-.4.387.387 0 0 1 .4.4z" opacity=".5" transform="translate(-42.867 -107.142)"/><path d="m55.04 77.181a.922.922 0 1 1 -.92-.981.957.957 0 0 1 .92.981z" opacity=".5" transform="translate(-37.806 -70.672)"/><path d="m60.192 83.657a1.232 1.232 0 0 1 -1.192 1.258 1.259 1.259 0 0 1 0-2.515 1.252 1.252 0 0 1 1.192 1.257z" opacity=".5" transform="translate(-40.996 -74.971)"/><path d="m45.465 69.483a.564.564 0 0 1 -.583.583.6.6 0 0 1 -.583-.583.564.564 0 0 1 .583-.583.582.582 0 0 1 .583.583z" opacity=".5" transform="translate(-31.635 -65.61)"/><path d="m40.943 67.815a.517.517 0 0 1 -.521.521.537.537 0 0 1 -.521-.521.517.517 0 0 1 .521-.521.483.483 0 0 1 .521.521z" opacity=".5" transform="translate(-28.585 -64.495)"/><path d="m37 67.2a.4.4 0 1 1 -.4-.4.406.406 0 0 1 .4.4z" opacity=".5" transform="translate(-26.019 -64.154)"/><path d="m32.575 67.137a.337.337 0 1 1 -.337-.337.322.322 0 0 1 .337.337z" opacity=".5" transform="translate(-23.038 -64.154)"/><path d="m11.474 65.745a.512.512 0 0 1 -.552.46.489.489 0 0 1 -.429-.552.512.512 0 0 1 .552-.46.489.489 0 0 1 .429.552z" transform="translate(-8.193 -63.038)"/><path d="m7.636 69.02a.37.37 0 0 1 -.4.337.4.4 0 0 1 -.337-.429.37.37 0 0 1 .4-.337.426.426 0 0 1 .337.429z" transform="translate(-5.704 -65.393)"/><path d="m59.691 132.645a.242.242 0 0 1 -.245.245.245.245 0 1 1 .245-.245z" opacity=".5" transform="translate(-41.966 -109.638)"/><path d="m29.091 68.345a.242.242 0 0 1 -.245.245.264.264 0 0 1 -.245-.245.242.242 0 0 1 .245-.245.264.264 0 0 1 .245.245z" opacity=".5" transform="translate(-20.75 -65.056)"/><path d="m35 124.809a.333.333 0 0 1 -.215-.368.275.275 0 0 1 .368-.184.333.333 0 0 1 .215.368.265.265 0 0 1 -.368.184z" opacity=".8" transform="translate(-25.035 -103.978)"/><path d="m38.271 124.112a.225.225 0 1 1 .307-.153.269.269 0 0 1 -.307.153z" opacity=".8" transform="translate(-27.323 -103.588)"/><path d="m56.5 104.467a.625.625 0 1 1 -.736-.491.663.663 0 0 1 .736.491z" opacity=".8" transform="translate(-39.239 -89.923)"/><path d="m55.633 97.628a.767.767 0 0 1 -.767.8.794.794 0 0 1 -.766-.828.767.767 0 0 1 .767-.8.757.757 0 0 1 .766.828z" opacity=".8" transform="translate(-38.43 -84.955)"/><path d="m45.388 80.375a.648.648 0 0 1 -.644.644.655.655 0 0 1 -.644-.675.648.648 0 0 1 .644-.644.675.675 0 0 1 .644.675z" opacity=".8" transform="translate(-31.497 -73.098)"/><path d="m56.547 110.205a.547.547 0 1 1 -.644-.429.593.593 0 0 1 .644.429z" opacity=".8" transform="translate(-39.374 -93.944)"/><circle cx="16.345" cy="17.917" opacity=".8" r=".399"/><path d="m54.439 119.5a.283.283 0 1 1 -.337-.215.282.282 0 0 1 .337.215z" opacity=".8" transform="translate(-38.278 -100.542)"/><path d="m49.36 85.067a.786.786 0 0 1 -.8.767.759.759 0 0 1 -.767-.767.786.786 0 0 1 .8-.767.759.759 0 0 1 .767.767z" opacity=".8" transform="translate(-34.058 -76.288)"/><path d="m53.283 90.32a.884.884 0 0 1 -.859.889.849.849 0 0 1 -.828-.92.884.884 0 0 1 .859-.889.908.908 0 0 1 .828.92z" opacity=".8" transform="translate(-36.693 -79.824)"/><path d="m40.82 78.291a.452.452 0 0 1 -.46.46.479.479 0 0 1 -.46-.491.452.452 0 0 1 .46-.46.524.524 0 0 1 .46.491z" opacity=".8" transform="translate(-28.585 -71.781)"/><path d="m36.3 77.1a.4.4 0 1 1 -.4-.4.406.406 0 0 1 .4.4z" opacity=".8" transform="translate(-25.534 -71.018)"/><path d="m32.252 77.1c0 .153-.123.307-.276.276a.283.283 0 0 1 -.276-.307c0-.153.123-.307.276-.276a.283.283 0 0 1 .276.307z" opacity=".8" transform="translate(-22.899 -71.079)"/></g></svg>